Coordinates
version=1
nRows=14
nColumns=40
inDegrees=yes

Units are S.I. units (second, meters, Newtons, ...)
Angles are in degrees.

endheader
time	pelvis_tilt	pelvis_list	pelvis_rotation	pelvis_tx	pelvis_ty	pelvis_tz	hip_flexion_r	hip_adduction_r	hip_rotation_r	knee_angle_r	knee_angle_r_beta	ankle_angle_r	subtalar_angle_r	mtp_angle_r	hip_flexion_l	hip_adduction_l	hip_rotation_l	knee_angle_l	knee_angle_l_beta	ankle_angle_l	subtalar_angle_l	mtp_angle_l	lumbar_extension	lumbar_bending	lumbar_rotation	arm_flex_r	arm_add_r	arm_rot_r	elbow_flex_r	pro_sup_r	wrist_flex_r	wrist_dev_r	arm_flex_l	arm_add_l	arm_rot_l	elbow_flex_l	pro_sup_l	wrist_flex_l	wrist_dev_l
     29.63000000	     -3.79300086	     -6.22262344	      3.15549707	      1.08337342	      0.92849837	      0.47343801	      9.98000114	      4.44429237	    -15.37092492	     16.41050242	     16.41050242	     11.74229020	     -5.31433193	     -2.92539580	     34.26614272	    -13.52345044	      4.03200018	     65.99786879	     65.99786879	      5.85328865	    -19.12003827	     16.31399621	     -9.40284371	      5.43483603	      3.19386751	     11.68057651	    -15.30828887	     -5.55894629	     57.40664515	     44.89609409	      0.00000000	      0.00000000	      7.86162216	     -8.19572705	     -7.66258920	     51.62494183	     45.06265068	      0.00000000	      0.00000000
     29.64121429	     -3.80946409	     -6.15798078	      3.47473378	      1.08197063	      0.92866957	      0.47352020	      9.02373780	      4.53538145	    -15.48263187	     15.62014276	     15.62014276	     11.90941182	     -5.19741556	     -3.19484954	     35.53800631	    -13.52223901	      3.19839671	     63.41691832	     63.41691832	      7.15055205	    -19.26222548	     17.42032364	     -9.48180102	      5.36022280	      2.97994329	     13.85597658	    -15.48301423	     -4.95848522	     61.26120470	     44.78535022	      0.00000000	      0.00000000	      7.08469204	     -7.58369331	     -7.71639083	     47.49603372	     45.13541276	      0.00000000	      0.00000000
     29.65242857	     -3.82535009	     -6.03392933	      3.75113721	      1.08062765	      0.92880589	      0.47361157	      8.09207509	      4.57549592	    -15.46989881	     14.88275332	     14.88275332	     12.16055099	     -5.16770127	     -3.14659569	     36.43720705	    -13.41110303	      2.23621911	     60.34689423	     60.34689423	      8.06047040	    -19.31889794	     17.73501132	     -9.58588508	      5.18618984	      2.41963503	     16.75674719	    -15.02833141	     -5.07049542	     63.66844482	     44.72731858	      0.00000000	      0.00000000	      5.53455875	     -7.32661257	     -7.45076004	     45.21613192	     45.09773205	      0.00000000	      0.00000000
     29.66364286	     -3.85798470	     -5.98638014	      4.06840113	      1.07929892	      0.92879739	      0.47346162	      7.16353422	      4.67803456	    -15.58782068	     14.08924408	     14.08924408	     12.30517653	     -5.03183181	     -3.38429917	     37.17342418	    -13.09515714	      1.61645016	     57.04287583	     57.04287583	      9.05728388	    -19.33040976	     18.77216857	     -9.62790640	      5.19751824	      2.76562813	     18.55797074	    -15.62158709	     -4.48292591	     67.81621874	     44.61971130	      0.00000000	      0.00000000	      6.17687494	     -6.46690566	     -7.29342567	     38.40707031	     45.15638663	      0.00000000	      0.00000000
     29.67485714	     -3.87701701	     -5.78015827	      4.33475853	      1.07804672	      0.92878752	      0.47315910	      6.28209737	      4.58438017	    -15.62844456	     13.44654170	     13.44654170	     12.57697658	     -4.93174634	     -3.37417315	     37.55532733	    -12.49534704	      1.00980201	     53.35998225	     53.35998225	      9.54892493	    -19.27859324	     18.99171148	     -9.75507173	      4.97663238	      2.32880616	     21.33533107	    -15.12700582	     -4.72476394	     70.13618412	     44.57162725	      0.00000000	      0.00000000	      4.76716031	     -6.19707749	     -7.11831913	     36.40211962	     45.12900980	      0.00000000	      0.00000000
     29.68607143	     -3.94406506	     -5.60776771	      4.59801317	      1.07685378	      0.92856364	      0.47265847	      5.45246145	      4.49878666	    -15.77312132	     12.80295281	     12.80295281	     12.84583029	     -4.67045872	     -3.42489867	     37.82951587	    -11.70307327	      0.80374720	     49.51691306	     49.51691306	      9.80214944	    -19.15829458	     18.99139118	     -9.83177686	      4.82013977	      1.95999904	     24.01025125	    -14.75689056	     -4.71884077	     72.63463117	     44.50996437	      0.00000000	      0.00000000	      3.65261333	     -5.87998695	     -6.90735413	     33.84920256	     45.10119004	      0.00000000	      0.00000000
     29.69728571	     -4.08721963	     -5.51001297	      4.83236984	      1.07576016	      0.92800392	      0.47191658	      4.72870857	      4.42018636	    -16.23132685	     12.22254168	     12.22254168	     13.12038668	     -3.90003025	     -3.74255866	     38.03571236	    -10.87451903	      0.87528362	     45.51811214	     45.51811214	      9.31393888	    -18.91683936	     17.16658375	     -9.75361664	      4.81199796	      2.57446021	     25.81515199	    -15.55218360	     -4.38065598	     76.29502133	     44.43571580	      0.00000000	      0.00000000	      4.23368937	     -5.15308574	     -6.58165125	     28.11623236	     45.14027838	      0.00000000	      0.00000000
     29.70850000	     -4.23738161	     -5.26804892	      5.00936920	      1.07474141	      0.92742516	      0.47106653	      4.07375416	      4.21122020	    -16.24787062	     11.77819124	     11.77819124	     13.43646700	     -3.78821982	     -3.79143452	     38.12002114	     -9.81576203	      1.21105152	     41.54039581	     41.54039581	      9.34294640	    -18.32845604	     17.14098040	     -9.72969921	      4.57876748	      2.51920648	     28.40735710	    -15.32753586	     -4.63645457	     78.26405902	     44.39923553	      0.00000000	      0.00000000	      2.89850087	     -4.89393238	     -6.50490958	     26.96510713	     45.11926502	      0.00000000	      0.00000000
     29.71971429	     -4.36932249	     -5.19363519	      5.19213407	      1.07401021	      0.92659036	      0.47008748	      3.33531828	      4.11806367	    -16.90126789	     11.25647006	     11.25647006	     13.80327291	     -2.64047339	     -4.07550777	     38.03474277	     -9.01691515	      1.59344376	     37.40386357	     37.40386357	      8.26495819	    -17.27139868	     13.65721952	     -9.70668595	      4.58555841	      2.82890434	     30.30574507	    -15.74532079	     -4.34709338	     81.92176250	     44.34240051	      0.00000000	      0.00000000	      2.41719415	     -4.52605640	     -6.08488124	     23.94441143	     45.12388050	      0.00000000	      0.00000000
     29.73092857	     -4.47105540	     -5.07291499	      5.33584539	      1.07337366	      0.92577571	      0.46915409	      2.61142599	      4.04189331	    -16.95228668	     10.81683188	     10.81683188	     14.10930009	     -2.47412215	     -4.11059464	     37.96921200	     -8.24810994	      2.06551996	     33.63928089	     33.63928089	      8.41373747	    -15.30757502	     13.45968519	     -9.71037731	      4.51325917	      2.64169046	     32.88480541	    -15.30071570	     -4.49541210	     83.96541121	     44.30454389	      0.00000000	      0.00000000	      0.97955823	     -4.37907997	     -5.95902808	     23.07736879	     45.09015580	      0.00000000	      0.00000000
     29.74214286	     -4.59208584	     -5.05898581	      5.46044908	      1.07298375	      0.92469030	      0.46807214	      1.85895520	      4.03148103	    -17.42375176	     10.33074745	     10.33074745	     14.52267371	     -1.55589108	     -4.17392483	     37.88301645	     -7.72106647	      2.34310268	     29.99909746	     29.99909746	      7.86805359	    -12.94879530	     11.15488706	     -9.68168778	      4.59104564	      2.83585404	     35.04082046	    -15.54180083	     -4.11716797	     86.94922642	     44.28417156	      0.00000000	      0.00000000	     -0.25861635	     -4.26488886	     -5.03377025	     22.23551162	     44.95691616	      0.00000000	      0.00000000
     29.75335714	     -4.77526876	     -4.97409589	      5.52877405	      1.07269859	      0.92352163	      0.46698645	      1.22900320	      3.96193763	    -17.49914020	      9.95446056	      9.95446056	     14.84552758	     -1.29924441	     -4.24896783	     37.86775288	     -7.16858022	      2.61487276	     26.74645935	     26.74645935	      8.05957436	    -10.49465154	     11.27238815	     -9.52410842	      4.54647475	      2.90470608	     37.44441120	    -15.28788230	     -4.14919019	     88.66423974	     44.24962240	      0.00000000	      0.00000000	     -1.59786634	     -4.16676268	     -4.86875597	     21.67683448	     44.90797624	      0.00000000	      0.00000000
     29.76457143	     -4.86503055	     -4.99504924	      5.60176118	      1.07267212	      0.92228595	      0.46587767	      0.42226456	      4.01213714	    -17.79923752	      9.45585470	      9.45585470	     15.16241638	     -0.59398489	     -4.30893119	     37.85328127	     -6.84582998	      2.63974497	     23.99667035	     23.99667035	      8.26189799	     -7.88719286	     11.20947986	     -9.53103340	      4.62922235	      2.76467946	     39.76219085	    -14.98090010	     -3.81457372	     91.00849344	     44.19027071	      0.00000000	      0.00000000	     -3.13037241	     -4.10463516	     -4.51065395	     21.29181127	     44.81380517	      0.00000000	      0.00000000
     29.77578571	     -4.99271766	     -5.02820784	      5.61806920	      1.07283828	      0.92091032	      0.46470932	     -0.31215359	      4.03950899	    -18.23635658	      9.06385269	      9.06385269	     15.61240801	      0.36114320	     -4.27883714	     37.90255785	     -6.59043915	      2.52002794	     21.69905233	     21.69905233	      8.28200868	     -5.71511699	     11.11630080	     -9.43588305	      4.74829375	      2.94211026	     41.83392503	    -15.14290232	     -3.20284959	     93.48728721	     44.14289852	      0.00000000	      0.00000000	     -4.73501122	     -4.13571628	     -3.47835537	     21.72081156	     44.57688200	      0.00000000	      0.00000000
